<?xml version="1.0" standalone="no"?>
<!DOCTYPE svg PUBLIC "-//W3C//DTD SVG 20010904//EN"
 "http://www.w3.org/TR/2001/REC-SVG-20010904/DTD/svg10.dtd">
<svg version="1.0" xmlns="http://www.w3.org/2000/svg"
 width="700.000000pt" height="700.000000pt" viewBox="0 0 700.000000 700.000000"
 preserveAspectRatio="xMidYMid meet">
<metadata>
Created by potrace 1.14, written by Peter Selinger 2001-2017
</metadata>
<g transform="translate(0.000000,700.000000) scale(0.100000,-0.100000)"
fill="#000000" stroke="none">
<path d="M642 6704 c-78 -29 -147 -114 -180 -224 -22 -71 -30 -181 -27 -375 4
-266 14 -765 20 -1050 5 -249 11 -555 21 -1040 6 -319 7 -375 20 -1020 8 -383
9 -809 3 -1270 -3 -212 -1 -260 14 -312 41 -154 123 -236 261 -262 43 -8 208
-6 246 2 53 12 110 32 145 49 39 20 125 101 125 118 0 5 5 21 12 37 41 101 42
224 3 413 -14 69 -32 157 -39 195 -9 54 -12 290 -12 995 l1 925 796 3 795 2 4
-537 c2 -296 3 -936 2 -1423 -1 -771 -3 -895 -17 -960 -27 -128 -30 -152 -29
-260 0 -91 4 -113 26 -160 35 -74 69 -107 145 -142 79 -35 159 -47 288 -43
103 4 136 8 180 25 15 6 43 6 72 1 27 -5 72 -12 102 -16 30 -4 63 -9 75 -11
12 -2 48 -6 81 -9 33 -3 69 -8 80 -10 11 -2 58 -7 105 -11 47 -3 87 -8 90 -9
12 -7 253 -19 390 -19 158 0 510 12 550 18 14 3 67 7 118 11 51 3 99 8 105 10
7 2 35 6 62 9 42 5 181 30 273 50 44 10 198 57 252 78 104 40 317 152 340 177
3 4 23 19 45 35 66 48 192 183 245 263 118 177 220 456 246 675 4 29 8 55 10
58 16 29 24 453 10 545 -28 182 -144 468 -252 618 -19 26 -34 51 -34 55 0 4
-42 48 -93 98 -100 97 -250 203 -360 254 -68 33 -72 38 -36 70 3 3 30 35 61
71 175 209 313 491 343 704 3 23 8 52 11 65 9 45 11 303 2 405 -19 213 -63
374 -154 560 -65 133 -84 164 -143 235 -193 232 -429 365 -799 450 -143 32
-171 37 -297 47 -116 10 -579 10 -716 1 -59 -5 -167 -11 -240 -14 -74 -3 -161
-7 -194 -9 -33 -2 -184 -6 -335 -10 -345 -6 -423 -12 -481 -30 -86 -29 -139
-99 -160 -211 -13 -70 -16 -277 -5 -389 4 -44 9 -98 11 -120 1 -22 6 -78 10
-125 11 -128 12 -321 1 -327 -13 -9 -233 -12 -958 -16 l-628 -4 -1 151 c0 83
-2 264 -4 401 -14 815 -15 785 3 785 10 0 481 2 1047 3 567 1 1044 6 1060 10
200 49 279 151 289 375 5 105 -43 216 -116 268 -41 30 -123 62 -171 69 -12 1
-44 6 -72 10 -27 4 -538 9 -1135 10 -597 1 -1096 5 -1110 9 -14 4 -99 9 -190
11 -134 4 -173 2 -208 -11z m4195 -1577 c11 -3 43 -9 70 -12 212 -31 366 -98
483 -214 79 -78 128 -170 161 -306 29 -118 32 -383 6 -515 -58 -294 -214 -449
-535 -531 -42 -11 -97 -22 -121 -25 -25 -3 -47 -7 -50 -9 -4 -2 -47 -6 -96
-10 -50 -4 -99 -9 -109 -11 -29 -5 -367 -17 -496 -17 -110 0 -292 10 -355 19
-16 2 -52 7 -80 10 -52 6 -85 11 -97 13 -5 1 -4 348 1 382 1 4 16 10 34 13 49
9 128 50 164 85 113 110 131 282 45 446 -39 76 -143 163 -214 180 l-28 7 -1
142 c0 77 -1 187 -3 244 l-3 102 26 0 c97 2 386 12 388 14 6 5 790 -1 810 -7z
m350 -2311 c317 -56 539 -210 676 -471 61 -117 82 -216 82 -400 0 -279 -69
-459 -239 -618 -139 -131 -398 -238 -631 -262 -33 -4 -73 -8 -90 -11 -178 -23
-723 -23 -961 0 -111 11 -211 24 -309 42 -44 7 -85 14 -92 14 -9 0 -12 197
-13 845 l0 845 62 1 c348 3 980 18 985 23 1 1 100 3 220 5 164 2 241 -1 310
-13z"/>
</g>
</svg>
